<svg xmlns="http://www.w3.org/2000/svg" viewBox="0 0 277.81 215.59"><defs><style>.cls-1{fill:#fff;}.cls-2{fill:#101437;}.cls-3{fill:#3354a5;}.cls-4{fill:#00aeef;}</style></defs><title>light blue s</title><g id="Layer_2" data-name="Layer 2"><g id="Layer_1-2" data-name="Layer 1"><path class="cls-1" d="M158.91,94.5a16.76,16.76,0,0,1,17,16.48,19.27,19.27,0,0,1-7.43,14.78,10.92,10.92,0,0,1-6.32,2.23,9.5,9.5,0,0,1-3-.48,16.56,16.56,0,0,1-3.9-2.11c-3.16-2.09-7.1-4.69-16.39-4.69h-.26a27.73,27.73,0,0,0-16.17,4.64,18.8,18.8,0,0,1-4.34,2.15,10.41,10.41,0,0,1-2.8.4,11.45,11.45,0,0,1-6.81-2.47A18.93,18.93,0,0,1,101.38,111a16.76,16.76,0,0,1,17-16.48h40.54m0-.46H118.37A17.22,17.22,0,0,0,100.92,111a19.4,19.4,0,0,0,7.32,14.82,11.91,11.91,0,0,0,7.09,2.56,10.67,10.67,0,0,0,2.92-.42,18.63,18.63,0,0,0,4.46-2.2,27.31,27.31,0,0,1,15.93-4.57h.26c9.15,0,13,2.55,16.14,4.61a16.45,16.45,0,0,0,4,2.16,9.86,9.86,0,0,0,3.11.51,11.29,11.29,0,0,0,6.59-2.32A19.76,19.76,0,0,0,176.36,111,17.22,17.22,0,0,0,158.91,94Z"/><ellipse class="cls-2" cx="138.64" cy="126.46" rx="4.74" ry="2.41"/><path class="cls-2" d="M162.15,128.22a9.67,9.67,0,0,1-3-.5,16,16,0,0,1-4-2.13c-3.14-2.07-7-4.65-16.27-4.65h-.26a27.55,27.55,0,0,0-16,4.6,18.54,18.54,0,0,1-4.4,2.18,10.46,10.46,0,0,1-2.86.41,11.76,11.76,0,0,1-7-2.51A19.21,19.21,0,0,1,101.15,111a17,17,0,0,1,17.22-16.71h40.54A17,17,0,0,1,176.13,111a19.53,19.53,0,0,1-7.53,15,11.19,11.19,0,0,1-6.45,2.27Z"/><path class="cls-3" d="M86.75,1.1A16.57,16.57,0,0,1,93.51,3C101.11,6.61,110,17,117.16,30.66c5,9.5,8.24,20.07,10.52,30.72h0l2.86,16.07a4.39,4.39,0,0,0,4.37,4.3h8.82a4.39,4.39,0,0,0,4.38-4.32l2-15.92h0s0,0,0-.06c2.29-10.64,5.53-21.21,10.53-30.71,7.21-13.72,16.05-24,23.65-27.65a16.49,16.49,0,0,1,6.75-1.91,5.23,5.23,0,0,1,3.16.92c2.84,2.09,2.77,7.38,2.2,11.46-1.42,10.27-7,24.15-15.71,39.08a149.74,149.74,0,0,1-12.38,17.61,54.28,54.28,0,0,1,16.51,20.66c-1.11,1-2.07,2.94-2.83,5.78a58,58,0,0,0-1.64,14.55A58,58,0,0,0,182,125.8c.82,3,1.84,5,3.05,6a80.62,80.62,0,0,1-9.68,13l-8.5-16a15.19,15.19,0,0,0,2.62-1.52,21.18,21.18,0,0,0,8.15-16.2c0-10-8.41-18.22-18.74-18.22H118.37c-10.33,0-18.74,8.17-18.74,18.22a20.76,20.76,0,0,0,7.84,15.85,15,15,0,0,0,3,1.75l-8.55,16.12a79.57,79.57,0,0,1-9.76-13.09c1.13-1,2.1-2.93,2.88-5.81a58.49,58.49,0,0,0,1.64-14.56A58.47,58.47,0,0,0,95,96.69a13,13,0,0,0-2.65-5.6,54.26,54.26,0,0,1,17-21.13,148,148,0,0,1-12.21-17.4C88.4,37.64,82.82,23.76,81.39,13.48,80.83,9.4,80.75,4.11,83.6,2a5.2,5.2,0,0,1,3.15-.92m23.79,68c.43-.3.85-.6,1.28-.88A110.34,110.34,0,0,1,101.28,54C93.87,41.63,89.42,31.39,88.05,23.52c-.87-5,.26-7.91,1.6-8.94a3.65,3.65,0,0,1,2.27-.68,11.45,11.45,0,0,1,4.61,1.27c5.73,2.66,12.65,10.66,18.5,21.4,3.85,7,6.9,15.5,9.31,25.73l1.48-.43c-3.06-13.06-6.4-20.47-9.44-26-6-11-13.18-19.26-19.2-22.06a12.87,12.87,0,0,0-5.27-1.41,5,5,0,0,0-3.19,1c-1.71,1.3-3.18,4.73-2.19,10.43,1.4,8.06,5.92,18.47,13.43,31A111.69,111.69,0,0,0,110.54,69.1m42.91-6.64c2.42-10.26,5.47-18.74,9.33-25.82,5.86-10.73,12.77-18.73,18.5-21.39A11.41,11.41,0,0,1,185.9,14a3.61,3.61,0,0,1,2.26.67c1.35,1,2.48,3.92,1.61,8.94C188.4,31.47,184,41.71,176.54,54A109.86,109.86,0,0,1,165.9,68.42l-.06.07c.52.34.77.52,1.27.88a112.85,112.85,0,0,0,10.75-14.55c7.51-12.48,12-22.9,13.42-31,1-5.69-.48-9.12-2.18-10.42a5.08,5.08,0,0,0-3.19-1,12.88,12.88,0,0,0-5.28,1.41c-6,2.8-13.19,11-19.2,22.06-3,5.57-6.38,13-9.44,26.11l1.46.44M86.75,0A6.27,6.27,0,0,0,83,1.13c-2.64,1.94-3.53,6.14-2.65,12.5,1.44,10.42,7.07,24.44,15.85,39.49a147.58,147.58,0,0,0,11.6,16.65,55.55,55.55,0,0,0-16.4,20.86l-.31.69.53.55c.62.62,1.53,2,2.37,5.1a57.19,57.19,0,0,1,1.6,14.27,57.13,57.13,0,0,1-1.6,14.27c-.9,3.31-1.87,4.69-2.53,5.27l-.68.6.44.78a81.39,81.39,0,0,0,9.89,13.28l1,1.19.75-1.41,8.56-16.13L112,128l-1.09-.47a14.13,14.13,0,0,1-2.76-1.62,19.62,19.62,0,0,1-7.39-15,17.4,17.4,0,0,1,17.63-17.12h40.54c9.72,0,17.64,7.68,17.64,17.12a20,20,0,0,1-7.7,15.3,13.58,13.58,0,0,1-2.42,1.41l-1.08.48.55,1.05,8.51,16,.74,1.41,1.06-1.2A81.87,81.87,0,0,0,186,132.31l.48-.83-.76-.59c-.7-.54-1.73-1.9-2.67-5.38a57.13,57.13,0,0,1-1.6-14.27A57.19,57.19,0,0,1,183.07,97c.89-3.27,1.85-4.65,2.51-5.24l.6-.54-.33-.74a55.65,55.65,0,0,0-16-20.39A145,145,0,0,0,181.66,53.2c8.78-15.05,14.41-29.07,15.85-39.49.88-6.36,0-10.57-2.64-12.5A6.32,6.32,0,0,0,191.06.08a17.73,17.73,0,0,0-7.23,2C176,5.79,167,16.31,159.68,30.23c-4.39,8.34-7.79,18.14-10.39,29.93l-.09,0-.14,1v0l-.06.26,0,.06-2,15.75v.12a3.3,3.3,0,0,1-3.28,3.23h-8.82a3.29,3.29,0,0,1-3.27-3.21v-.09l0-.09-2.81-15.82v0l-.07-.29c-2.62-12.23-6.1-22.37-10.61-31C110.82,16.23,101.79,5.71,94,2a17.69,17.69,0,0,0-7.23-2Z"/><path class="cls-3" d="M132.64,60.5l1.21,11.32c0,2.3,1.23,4.09,2.76,4.09h4.81c1.53,0,2.74-1.8,2.75-4.08L145,60.55c1.14.15,2.29.35,3.44.58l-2.05,16.16v.08a2.69,2.69,0,0,1-2.69,2.68h-8.82a2.69,2.69,0,0,1-2.68-2.72L129.34,61c1.11-.22,2.22-.4,3.3-.53m1-1.24-1.12.14c-1.1.14-2.24.32-3.37.54l-1.07.21.19,1.07,2.88,16.22a3.8,3.8,0,0,0,3.78,3.72h8.82a3.8,3.8,0,0,0,3.79-3.76h0l2-16.12.13-1-1-.21c-1.18-.24-2.36-.44-3.52-.6L144,59.3l-.09,1.16-.86,11.29v.08c0,1.75-.88,3-1.65,3h-4.81c-.79,0-1.64-1.21-1.65-3V71.7l-1.21-11.32-.12-1.12Z"/><path class="cls-3" d="M138.66,60.12c1.58,0,3.15.08,4.72.23l-.87,11.36v.06c0,1.26-.59,2.24-1.09,2.24h-4.81c-.51,0-1.1-1-1.1-2.24l-1.22-11.45c1.47-.13,2.92-.2,4.37-.2m0-1.1c-1.48,0-3,.07-4.46.2l-1.12.1.12,1.12,1.21,11.39c0,1.84,1,3.28,2.2,3.28h4.81c1.23,0,2.2-1.47,2.2-3.34h0l.86-11.32.09-1.08-1.08-.11c-1.61-.15-3.23-.23-4.83-.23Z"/><path class="cls-3" d="M138.94,122.45c8.72,0,12.4,2.44,15.39,4.41a17.77,17.77,0,0,0,4.32,2.31,11.38,11.38,0,0,0,3.5.56,11.14,11.14,0,0,0,3.12-.44l8.71,16.4a111.94,111.94,0,0,1-13.06,3.3,112.64,112.64,0,0,1-19.66,1.93H136A112.74,112.74,0,0,1,116.36,149a110.83,110.83,0,0,1-13.08-3.31l8.78-16.53a11.77,11.77,0,0,0,6.55,0,19.85,19.85,0,0,0,4.76-2.34,26.37,26.37,0,0,1,15.28-4.39h.29m0-1.1h-.3a27.17,27.17,0,0,0-15.84,4.55,19.19,19.19,0,0,1-4.5,2.22,10.54,10.54,0,0,1-2.91.4,10.77,10.77,0,0,1-3-.43l-.86-.24-.42.79-8.77,16.52-.62,1.17,1.26.4a112.07,112.07,0,0,0,13.21,3.35A113.85,113.85,0,0,0,136,152h2.63l1.55,0h1.08a114.05,114.05,0,0,0,19.86-1.94,112,112,0,0,0,13.18-3.34l1.26-.4-.62-1.17-8.7-16.4-.42-.79-.86.25a10.5,10.5,0,0,1-2.82.4,10.14,10.14,0,0,1-3.16-.51,17.28,17.28,0,0,1-4.05-2.18c-3.09-2-6.95-4.59-16-4.59Z"/><path class="cls-3" d="M88.77,97.25c1.39,0,3.33,5.32,3.33,14s-1.94,14-3.33,14c-1.16,0-2.92-4-3.27-11.53H89v-1.29H85.46c0-.18,0-.35,0-.53H89V110.6H85.45c0-.18,0-.36,0-.53H89v-1.29H85.5c.35-7.53,2.11-11.53,3.27-11.53m0-1.1c-2.62,0-4.08,6.32-4.37,12.58V109h0v.42l0,.5h0V110c0,.18,0,.36,0,.55v.19h0v.92h0v.2c0,.18,0,.36,0,.54v.16h0l0,.5v.42h0v.24c.29,6.26,1.75,12.58,4.37,12.58,2.91,0,4.43-7.59,4.43-15.1s-1.52-15.09-4.43-15.09Z"/><path class="cls-3" d="M186.71,91.56c1.12,0,2.39,2.11,3.31,5.5v0A2.28,2.28,0,0,0,188.24,96c-1.41,0-2.59,1.7-3.43,4.91a47.69,47.69,0,0,0,0,20.64c.84,3.22,2,4.91,3.43,4.91A2.28,2.28,0,0,0,190,125.4v0c-.92,3.4-2.19,5.5-3.31,5.5s-2.4-2.1-3.32-5.5a56.92,56.92,0,0,1-1.58-14.18,57,57,0,0,1,1.58-14.18c.92-3.39,2.2-5.5,3.32-5.5m0-1.1c-2.21,0-3.6,3.43-4.38,6.31a57.83,57.83,0,0,0-1.63,14.47,57.77,57.77,0,0,0,1.63,14.47c.78,2.88,2.17,6.32,4.38,6.32s3.38-2.69,4.17-5.57c0,0,.17-1,.17-1a12.19,12.19,0,0,0-.17-3.54l-1.73,2.83c-.32.43-.63.64-.91.64-.6,0-1.57-1.07-2.36-4.09a46.37,46.37,0,0,1,0-20.08c.79-3,1.76-4.08,2.36-4.08.28,0,.59.21.91.63l2.24,3.94s-.1-3.72-.31-4.94c-.48-2.92-2.16-6.29-4.37-6.29Z"/><path class="cls-3" d="M188.24,97.25c1.16,0,2.93,4,3.27,11.53h-2.62v1.29h2.66c0,.17,0,.35,0,.53h-2.67v1.29h2.67c0,.18,0,.35,0,.53h-2.66v1.29h2.62c-.34,7.52-2.11,11.53-3.27,11.53-1.39,0-3.33-5.33-3.33-14s1.94-14,3.33-14m0-1.1c-2.91,0-4.43,7.59-4.43,15.09s1.52,15.1,4.43,15.1c2.62,0,4.09-6.32,4.37-12.58v-.24h0v-.42l0-.5h0v-.16c0-.18,0-.36,0-.54v-.2h0v-.92h0v-.19c0-.19,0-.37,0-.55v-.16h0l0-.5V109h0v-.23c-.28-6.26-1.75-12.58-4.37-12.58Z"/><path class="cls-3" d="M90.3,91.56c1.13,0,2.4,2.11,3.32,5.5a56.94,56.94,0,0,1,1.59,14.18,56.88,56.88,0,0,1-1.59,14.18c-.92,3.4-2.19,5.5-3.32,5.5s-2.39-2.1-3.31-5.5v0a2.31,2.31,0,0,0,1.79,1.07c1.41,0,2.59-1.69,3.43-4.91a47.28,47.28,0,0,0,0-20.64c-.84-3.21-2-4.91-3.43-4.91A2.31,2.31,0,0,0,87,97.08v0c.92-3.39,2.19-5.5,3.31-5.5m0-1.1c-2.2,0-3.92,3.36-4.38,6.31-.22,1.44-.27,5.8-.27,5.8l2.21-4.82c.32-.42.63-.63.91-.63.6,0,1.58,1.07,2.36,4.08a46.37,46.37,0,0,1,0,20.08c-.78,3-1.76,4.09-2.36,4.09-.28,0-.59-.21-.91-.64l-2.14-4.49a23.1,23.1,0,0,0,.21,5.49c.73,2.88,2.17,6.3,4.37,6.3s3.6-3.44,4.38-6.32a57.77,57.77,0,0,0,1.63-14.47,57.77,57.77,0,0,0-1.63-14.47c-.78-2.88-2.17-6.31-4.38-6.31Z"/><rect class="cls-4" x="116.45" y="110.06" width="3" height="3"/><rect class="cls-4" x="119.45" y="107.06" width="3" height="3"/><rect class="cls-4" x="122.44" y="107.06" width="3" height="3"/><rect class="cls-4" x="125.44" y="110.06" width="3" height="3"/><rect class="cls-4" x="148.84" y="110.06" width="3" height="3"/><rect class="cls-4" x="151.84" y="107.06" width="3" height="3"/><rect class="cls-4" x="154.84" y="107.06" width="3" height="3"/><rect class="cls-4" x="157.84" y="110.06" width="3" height="3"/><path class="cls-3" d="M22.33,180.54a12.25,12.25,0,0,1,4.74,4.76,15.72,15.72,0,0,1,0,14.3,12.25,12.25,0,0,1-4.74,4.76,13.49,13.49,0,0,1-6.71,1.7q-5.44,0-8.3-3.44v3H0V169.21H7.66V182a10.25,10.25,0,0,1,8-3.19A13.49,13.49,0,0,1,22.33,180.54Zm-3.19,17.24a8.46,8.46,0,0,0,0-10.66,6.39,6.39,0,0,0-4.84-2,6.36,6.36,0,0,0-4.84,2,8.46,8.46,0,0,0,0,10.66,6.36,6.36,0,0,0,4.84,2A6.39,6.39,0,0,0,19.14,197.78Z"/><path class="cls-3" d="M60.52,179.23v26.43H53.25v-3.14a10.09,10.09,0,0,1-3.63,2.63,11.54,11.54,0,0,1-4.57.91,11.24,11.24,0,0,1-8.25-3c-2-2-3-5-3-8.89V179.23h7.66V193q0,6.39,5.36,6.39a5.74,5.74,0,0,0,4.42-1.8,7.57,7.57,0,0,0,1.67-5.33V179.23Z"/><path class="cls-3" d="M91.65,181.79c2,2,3,4.88,3,8.74v15.13H87V191.71A6.88,6.88,0,0,0,85.63,187a5.07,5.07,0,0,0-4-1.55,6.1,6.1,0,0,0-4.62,1.8,7.4,7.4,0,0,0-1.72,5.33v13.06H67.65V179.23H75v3.1a10.17,10.17,0,0,1,3.78-2.58,13.11,13.11,0,0,1,5-.91A10.87,10.87,0,0,1,91.65,181.79Z"/><path class="cls-3" d="M125.59,181.79c2,2,3,4.88,3,8.74v15.13H121V191.71a6.93,6.93,0,0,0-1.37-4.69,5.07,5.07,0,0,0-4-1.55,6.07,6.07,0,0,0-4.62,1.8,7.4,7.4,0,0,0-1.72,5.33v13.06H101.6V179.23h7.32v3.1a10.17,10.17,0,0,1,3.78-2.58,13.07,13.07,0,0,1,5-.91A10.85,10.85,0,0,1,125.59,181.79Z"/><path class="cls-3" d="M161.28,179.23l-11.93,28.06c-1.21,3-2.71,5.19-4.5,6.43a11,11,0,0,1-6.46,1.87,13.68,13.68,0,0,1-4.08-.64,9.12,9.12,0,0,1-3.29-1.77l2.8-5.45a6.77,6.77,0,0,0,2,1.23,6.46,6.46,0,0,0,2.29.44,4.09,4.09,0,0,0,2.55-.76,6.38,6.38,0,0,0,1.77-2.53l.1-.25-11.45-26.63H139l7.42,17.94,7.46-17.94Z"/><path class="cls-3" d="M166.49,205.25a16.89,16.89,0,0,1-5-2l2.56-5.5a16.2,16.2,0,0,0,4.27,1.84,18.1,18.1,0,0,0,4.91.71c3.24,0,4.87-.8,4.87-2.41a1.72,1.72,0,0,0-1.33-1.62,20.31,20.31,0,0,0-4.08-.83,40.31,40.31,0,0,1-5.35-1.13,8.34,8.34,0,0,1-3.66-2.26,6.43,6.43,0,0,1-1.55-4.62,7.24,7.24,0,0,1,1.45-4.45,9.3,9.3,0,0,1,4.22-3,18.07,18.07,0,0,1,6.56-1.08,26.34,26.34,0,0,1,5.58.61,15.86,15.86,0,0,1,4.59,1.7L182,186.6a15.28,15.28,0,0,0-7.62-2,7.7,7.7,0,0,0-3.68.69,2,2,0,0,0-1.23,1.76,1.75,1.75,0,0,0,1.33,1.72,23.49,23.49,0,0,0,4.22.94,45.53,45.53,0,0,1,5.31,1.15,8,8,0,0,1,3.58,2.24,6.31,6.31,0,0,1,1.53,4.52,7,7,0,0,1-1.48,4.37,9.31,9.31,0,0,1-4.3,3,19,19,0,0,1-6.7,1.06A25.72,25.72,0,0,1,166.49,205.25Z"/><path class="cls-3" d="M214.12,181.79c2,2,3,4.88,3,8.74v15.13h-7.66V191.71A6.88,6.88,0,0,0,208.1,187a5.05,5.05,0,0,0-4-1.55,6.1,6.1,0,0,0-4.62,1.8,7.44,7.44,0,0,0-1.71,5.33v13.06h-7.67V169.21h7.67V182a10.09,10.09,0,0,1,3.68-2.34,13.33,13.33,0,0,1,4.72-.81A10.85,10.85,0,0,1,214.12,181.79Z"/><path class="cls-3" d="M250.11,194.61h-20a6.2,6.2,0,0,0,2.56,3.88,8.45,8.45,0,0,0,5,1.43,10.17,10.17,0,0,0,3.66-.62,8.85,8.85,0,0,0,3-1.94l4.08,4.42q-3.73,4.28-10.91,4.28a17.16,17.16,0,0,1-7.91-1.75,12.7,12.7,0,0,1-5.3-4.84,13.26,13.26,0,0,1-1.87-7,13.48,13.48,0,0,1,1.84-7,12.92,12.92,0,0,1,5.06-4.86,15.64,15.64,0,0,1,14.22-.08,12.24,12.24,0,0,1,4.94,4.79,14.25,14.25,0,0,1,1.79,7.25C250.25,192.65,250.2,193.33,250.11,194.61Zm-17.94-8.5a6.31,6.31,0,0,0-2.16,4h13a6.32,6.32,0,0,0-2.16-4,6.46,6.46,0,0,0-4.32-1.5A6.63,6.63,0,0,0,232.17,186.11Z"/><path class="cls-3" d="M255.36,169.21H263v36.45h-7.67Z"/><path class="cls-3" d="M270.15,169.21h7.66v36.45h-7.66Z"/></g></g></svg>